<svg xmlns="http://www.w3.org/2000/svg" viewBox="20 183.65499372914442 535.0054842806103 207.68721073422515"> <svg xmlns="http://www.w3.org/2000/svg" xmlns:xlink="http://www.w3.org/1999/xlink" version="1.1" x="90" y="253.65499372914442" viewBox="1.6639127731323242 2 76.07217407226562 86.79999542236328" xml:space="preserve" height="65.98052371392085" width="57.82581239769471" preserveAspectRatio="xMinYMin" enable-background="new 0 0 79.4 90.7" style="overflow: visible;"><g id="Layer_3" style=""></g><path class="st36" d="M65.4,45.4c0,1.5,0.6,2.4,1,3.2c0.5,0.9,1.2,1.7,1.9,2.5c0.7,0.7,1.5,1.4,2.5,1.9c0.9,0.5,1.9,1,3.2,1.2    c2.4,0.3,4,2.6,3.7,4.9s-2.6,4-4.9,3.7c-2-0.3-3.4-1.8-3.7-3.7c-0.2-1.3-0.6-2.3-1.2-3.2c-0.5-0.9-1.2-1.7-1.9-2.5    c-0.7-0.7-1.5-1.4-2.5-1.9c-0.9-0.5-2-0.9-3.2-1.2c-2.5-0.5-4-2.5-4-5l0,0c0-2.4,1.5-4.4,4-5c1.3-0.3,2.3-0.6,3.2-1.2    c0.9-0.5,1.7-1.2,2.5-1.9c0.7-0.7,1.4-1.5,1.9-2.5c0.5-0.9,1-1.9,1.2-3.2c0.3-1.9,1.7-3.4,3.7-3.7c2.4-0.3,4.6,1.3,4.9,3.7    s-1.3,4.6-3.7,4.9c-1.3,0.2-2.3,0.6-3.2,1.2c-0.9,0.5-1.7,1.2-2.5,1.9c-0.7,0.7-1.4,1.5-1.9,2.5C66,42.9,65.4,43.9,65.4,45.4z" style="fill: #62D4F9;"></path><path class="st23" d="M34.9,49.1c0.8-0.6,1.6-0.9,2.4-1.1c0.8-0.2,1.6-0.3,2.4-0.3c0.8,0,1.6,0.1,2.4,0.3c0.8,0.2,1.6,0.5,2.4,1.1    c2.1,1.5,5,1.1,6.5-0.9c1.5-2.1,1.1-5-0.9-6.5c-1.7-1.3-4-1.2-5.6,0c-0.8,0.6-1.6,0.9-2.4,1.1c-0.8,0.2-1.6,0.3-2.4,0.3    c-0.8,0-1.6-0.1-2.4-0.3c-0.8-0.2-1.6-0.5-2.4-1.1c-2.1-1.5-5-1.1-6.5,0.9c-1.5,2.1-1.1,5,0.9,6.5C31.1,50.3,33.3,50.3,34.9,49.1z    " style="fill: #2A50DF;"></path><path class="st35" d="M37.6,23.6c0.3-1.9,0.5-2.6,0.5-4.5c0-1.9-0.2-2.6-0.5-4.5c-0.4-2.2-1.1-3.2-2.2-5.6c-0.7-1.5-0.7-3,0-4.4    C36.2,2.9,37.9,2,39.7,2c1.8,0,3.5,1,4.4,2.7c0.7,1.4,0.7,2.9,0,4.4c-1.2,2.4-1.8,3.4-2.2,5.6c-0.3,1.9-0.5,2.6-0.5,4.5    c0,1.9,0.2,2.6,0.5,4.5c0.4,2.2,1.1,3.2,2.2,5.6c0.7,1.5,0.7,3,0,4.4c-0.9,1.7-2.6,2.7-4.4,2.7c-1.8,0-3.5-1-4.4-2.7    c-0.7-1.4-0.7-2.9,0-4.4C36.5,26.8,37.2,25.8,37.6,23.6z" style="fill: #1099E7;"></path><path class="st36" d="M56.9,15.2c0.3,1.3,0.3,2.5,0.1,3.7c-0.2,1.1-0.5,2.2-0.9,3.2c-0.4,1-1,2-1.7,2.9c-0.7,0.9-1.5,1.8-2.7,2.5    c-2.2,1.3-3,4.2-1.7,6.5s4.2,3,6.5,1.7c1.8-1.1,2.7-3.2,2.2-5.2c-0.3-1.3-0.3-2.5-0.1-3.7c0.2-1.1,0.5-2.2,0.9-3.2    c0.4-1,1-2,1.7-2.9c0.7-0.9,1.5-1.8,2.7-2.5c2.2-1.3,3-4.2,1.7-6.5s-4.2-3-6.5-1.7C57.2,11.1,56.4,13.3,56.9,15.2z" style="fill: #62D4F9;"></path><path class="st23" d="M37.6,67.1c0.3,1.9,0.5,2.6,0.5,4.5c0,1.9-0.2,2.6-0.5,4.5c-0.4,2.2-1.1,3.2-2.2,5.6c-0.7,1.5-0.7,3,0,4.4    c0.9,1.7,2.6,2.7,4.4,2.7c1.8,0,3.5-1,4.4-2.7c0.7-1.4,0.7-2.9,0-4.4c-1.2-2.4-1.8-3.4-2.2-5.6c-0.3-1.9-0.5-2.6-0.5-4.5    c0-1.9,0.2-2.6,0.5-4.5c0.4-2.2,1.1-3.2,2.2-5.6c0.7-1.5,0.7-3,0-4.4c-0.9-1.7-2.6-2.7-4.4-2.7c-1.8,0-3.5,1-4.4,2.7    c-0.7,1.4-0.7,2.9,0,4.4C36.5,63.9,37.2,64.9,37.6,67.1z" style="fill: #2A50DF;"></path><path class="st36" d="M56.9,75.5c0.3-1.3,0.3-2.5,0.1-3.7c-0.2-1.1-0.5-2.2-0.9-3.2c-0.4-1-1-2-1.7-2.9c-0.7-0.9-1.5-1.8-2.7-2.5    c-2.2-1.3-3-4.2-1.7-6.5s4.2-3,6.5-1.7c1.8,1.1,2.7,3.2,2.2,5.2c-0.3,1.3-0.3,2.5-0.1,3.7c0.2,1.1,0.5,2.2,0.9,3.2    c0.4,1,1,2,1.7,2.9c0.7,0.9,1.5,1.8,2.7,2.5c2.2,1.3,3,4.2,1.7,6.5s-4.2,3-6.5,1.7C57.2,79.6,56.4,77.5,56.9,75.5z" style="fill: #62D4F9;"></path><path class="st35" d="M14,45.4c0,1.5-0.6,2.4-1,3.2c-0.5,0.9-1.2,1.7-1.9,2.5c-0.7,0.7-1.5,1.4-2.5,1.9c-0.9,0.5-1.9,1-3.2,1.2    c-2.4,0.3-4,2.6-3.7,4.9s2.6,4,4.9,3.7c2-0.3,3.4-1.8,3.7-3.7c0.2-1.3,0.6-2.3,1.2-3.2c0.5-0.9,1.2-1.7,1.9-2.5    c0.7-0.7,1.5-1.4,2.5-1.9c0.9-0.5,2-0.9,3.2-1.2c2.5-0.5,4-2.5,4-5l0,0c0-2.4-1.5-4.4-4-5c-1.3-0.3-2.3-0.6-3.2-1.2    c-0.9-0.5-1.7-1.2-2.5-1.9c-0.7-0.7-1.4-1.5-1.9-2.5c-0.5-0.9-1-1.9-1.2-3.2C10,29.8,8.6,28.2,6.6,28c-2.4-0.3-4.6,1.3-4.9,3.7    s1.3,4.6,3.7,4.9c1.3,0.2,2.3,0.6,3.2,1.2c0.9,0.5,1.7,1.2,2.5,1.9c0.7,0.7,1.4,1.5,1.9,2.5C13.4,42.9,14,43.9,14,45.4z" style="fill: #1099E7;"></path><path class="st35" d="M22.5,15.2c-0.3,1.3-0.3,2.5-0.1,3.7c0.2,1.1,0.5,2.2,0.9,3.2c0.4,1,1,2,1.7,2.9c0.7,0.9,1.5,1.8,2.7,2.5    c2.2,1.3,3,4.2,1.7,6.5c-1.3,2.2-4.2,3-6.5,1.7c-1.8-1.1-2.7-3.2-2.2-5.2c0.3-1.3,0.3-2.5,0.1-3.7c-0.2-1.1-0.5-2.2-0.9-3.2    c-0.4-1-1-2-1.7-2.9c-0.7-0.9-1.5-1.8-2.7-2.5c-2.2-1.3-3-4.2-1.7-6.5s4.2-3,6.5-1.7C22.1,11.1,23,13.3,22.5,15.2z" style="fill: #1099E7;"></path><path class="st23" d="M22.5,75.5c-0.3-1.3-0.3-2.5-0.1-3.7c0.2-1.1,0.5-2.2,0.9-3.2c0.4-1,1-2,1.7-2.9c0.7-0.9,1.5-1.8,2.7-2.5    c2.2-1.3,3-4.2,1.7-6.5c-1.3-2.2-4.2-3-6.5-1.7c-1.8,1.1-2.7,3.2-2.2,5.2c0.3,1.3,0.3,2.5,0.1,3.7c-0.2,1.1-0.5,2.2-0.9,3.2    c-0.4,1-1,2-1.7,2.9c-0.7,0.9-1.5,1.8-2.7,2.5c-2.2,1.3-3,4.2-1.7,6.5s4.2,3,6.5,1.7C22.1,79.6,23,77.5,22.5,75.5z" style="fill: #2A50DF;"></path></svg> <svg xmlns="http://www.w3.org/2000/svg" x="157.52547329428214" y="306.4422048448393" viewBox="0.7400000095367432 3.5799999237060547 327.4800109863281 14.899999618530273" height="14.899999618530273" width="327.4800109863281" style="overflow: visible;"><g fill="#383539" fill-opacity="1" style=""><path d="M4.86 15.42L4.86 15.42Q3.63 15.42 2.49 15.02Q1.36 14.62 0.74 13.98L0.74 13.98L1.20 13.08Q1.79 13.65 2.78 14.04Q3.77 14.43 4.86 14.43L4.86 14.43Q5.91 14.43 6.56 14.16Q7.22 13.90 7.53 13.46Q7.84 13.02 7.84 12.48L7.84 12.48Q7.84 11.83 7.47 11.43Q7.09 11.04 6.49 10.81Q5.89 10.58 5.16 10.40Q4.43 10.23 3.71 10.03Q2.98 9.83 2.37 9.50Q1.76 9.17 1.39 8.62Q1.01 8.08 1.01 7.19L1.01 7.19Q1.01 6.37 1.45 5.68Q1.88 4.99 2.79 4.57Q3.69 4.15 5.10 4.15L5.10 4.15Q6.03 4.15 6.95 4.41Q7.87 4.67 8.54 5.13L8.54 5.13L8.14 6.06Q7.43 5.59 6.63 5.37Q5.83 5.15 5.08 5.15L5.08 5.15Q4.09 5.15 3.44 5.42Q2.79 5.68 2.48 6.14Q2.17 6.59 2.17 7.16L2.17 7.16Q2.17 7.81 2.54 8.20Q2.91 8.60 3.52 8.82Q4.13 9.04 4.86 9.22Q5.59 9.39 6.31 9.60Q7.03 9.80 7.64 10.13Q8.25 10.45 8.62 10.99Q8.99 11.53 8.99 12.40L8.99 12.40Q8.99 13.21 8.55 13.90Q8.11 14.58 7.20 15.00Q6.29 15.42 4.86 15.42ZM13.94 15.41L13.94 15.41Q12.76 15.41 12.13 14.77Q11.50 14.14 11.50 12.98L11.50 12.98L11.50 5.18L12.62 5.18L12.62 12.92Q12.62 13.65 12.99 14.05Q13.37 14.44 14.06 14.44L14.06 14.44Q14.81 14.44 15.30 14.01L15.30 14.01L15.69 14.82Q15.36 15.12 14.89 15.27Q14.43 15.41 13.94 15.41ZM15.15 7.95L10.01 7.95L10.01 7.02L15.15 7.02L15.15 7.95ZM21.12 15.41L21.12 15.41Q19.92 15.41 18.96 14.86Q18.00 14.32 17.45 13.36Q16.90 12.40 16.90 11.16L16.90 11.16Q16.90 9.91 17.45 8.96Q18.00 8.01 18.95 7.47Q19.91 6.94 21.12 6.94L21.12 6.94Q22.36 6.94 23.32 7.47Q24.28 8.01 24.82 8.96Q25.37 9.91 25.37 11.16L25.37 11.16Q25.37 12.40 24.82 13.36Q24.28 14.32 23.31 14.86Q22.34 15.41 21.12 15.41ZM21.12 14.41L21.12 14.41Q22.03 14.41 22.72 14.01Q23.42 13.60 23.82 12.87Q24.23 12.13 24.23 11.16L24.23 11.16Q24.23 10.18 23.82 9.45Q23.42 8.73 22.72 8.32Q22.03 7.92 21.14 7.92L21.14 7.92Q20.25 7.92 19.56 8.32Q18.86 8.73 18.45 9.45Q18.04 10.18 18.04 11.16L18.04 11.16Q18.04 12.13 18.45 12.87Q18.86 13.60 19.56 14.01Q20.25 14.41 21.12 14.41ZM31.96 15.41L31.96 15.41Q30.88 15.41 30.01 14.91Q29.14 14.41 28.62 13.47Q28.11 12.53 28.11 11.16L28.11 11.16Q28.11 9.80 28.61 8.86Q29.12 7.92 29.99 7.43Q30.86 6.94 31.96 6.94L31.96 6.94Q33.14 6.94 34.09 7.47Q35.03 8.00 35.57 8.95Q36.10 9.91 36.10 11.16L36.10 11.16Q36.10 12.43 35.57 13.38Q35.03 14.33 34.09 14.87Q33.14 15.41 31.96 15.41ZM28.79 18.40L27.66 18.40L27.66 7.02L28.74 7.02L28.74 9.52L28.63 11.18L28.79 12.86L28.79 18.40ZM31.88 14.41L31.88 14.41Q32.76 14.41 33.46 14.01Q34.16 13.60 34.57 12.87Q34.98 12.13 34.98 11.16L34.98 11.16Q34.98 10.20 34.57 9.47Q34.16 8.74 33.46 8.33Q32.76 7.92 31.88 7.92L31.88 7.92Q30.99 7.92 30.29 8.33Q29.58 8.74 29.18 9.47Q28.77 10.20 28.77 11.16L28.77 11.16Q28.77 12.13 29.18 12.87Q29.58 13.60 30.29 14.01Q30.99 14.41 31.88 14.41ZM45.18 15.41L45.18 15.41Q44.01 15.41 43.37 14.77Q42.74 14.14 42.74 12.98L42.74 12.98L42.74 5.18L43.86 5.18L43.86 12.92Q43.86 13.65 44.24 14.05Q44.61 14.44 45.30 14.44L45.30 14.44Q46.05 14.44 46.54 14.01L46.54 14.01L46.94 14.82Q46.60 15.12 46.14 15.27Q45.67 15.41 45.18 15.41ZM46.40 7.95L41.25 7.95L41.25 7.02L46.40 7.02L46.40 7.95ZM55.27 15.33L54.19 15.33L54.19 13.49L54.14 13.19L54.14 10.12Q54.14 9.06 53.55 8.49Q52.95 7.92 51.78 7.92L51.78 7.92Q50.97 7.92 50.25 8.19Q49.52 8.46 49.01 8.90L49.01 8.90L48.50 8.06Q49.14 7.52 50.02 7.23Q50.91 6.94 51.89 6.94L51.89 6.94Q53.51 6.94 54.39 7.74Q55.27 8.54 55.27 10.17L55.27 10.17L55.27 15.33ZM51.32 15.41L51.32 15.41Q50.39 15.41 49.70 15.10Q49.01 14.79 48.65 14.24Q48.28 13.70 48.28 12.98L48.28 12.98Q48.28 12.34 48.59 11.81Q48.90 11.27 49.60 10.95Q50.31 10.63 51.50 10.63L51.50 10.63L54.36 10.63L54.36 11.46L51.53 11.46Q50.32 11.46 49.86 11.89Q49.39 12.32 49.39 12.95L49.39 12.95Q49.39 13.67 49.94 14.09Q50.50 14.52 51.50 14.52L51.50 14.52Q52.45 14.52 53.14 14.09Q53.82 13.65 54.14 12.83L54.14 12.83L54.39 13.60Q54.08 14.43 53.29 14.92Q52.51 15.41 51.32 15.41ZM59.45 15.33L58.32 15.33L58.32 3.58L59.45 3.58L59.45 15.33ZM65.76 11.05L63.47 13.17L63.50 11.73L68.68 7.02L70.06 7.02L66.40 10.51L65.76 11.05ZM63.71 15.33L62.58 15.33L62.58 3.58L63.71 3.58L63.71 15.33ZM70.40 15.33L69.03 15.33L65.56 11.01L66.29 10.13L70.40 15.33ZM73.18 15.33L72.05 15.33L72.05 7.02L73.18 7.02L73.18 15.33ZM72.62 5.18L72.62 5.18Q72.27 5.18 72.03 4.94Q71.80 4.70 71.80 4.37L71.80 4.37Q71.80 4.04 72.03 3.81Q72.27 3.58 72.62 3.58L72.62 3.58Q72.97 3.58 73.21 3.80Q73.44 4.02 73.44 4.35L73.44 4.35Q73.44 4.70 73.21 4.94Q72.99 5.18 72.62 5.18ZM77.43 15.33L76.31 15.33L76.31 7.02L77.39 7.02L77.39 9.30L77.21 8.87Q77.61 7.97 78.48 7.45Q79.35 6.94 80.55 6.94L80.55 6.94Q81.57 6.94 82.34 7.32Q83.10 7.71 83.54 8.50Q83.97 9.30 83.97 10.50L83.97 10.50L83.97 15.33L82.85 15.33L82.85 10.61Q82.85 9.30 82.19 8.62Q81.54 7.95 80.35 7.95L80.35 7.95Q79.46 7.95 78.80 8.31Q78.15 8.66 77.79 9.33Q77.43 10.01 77.43 10.96L77.43 10.96L77.43 15.33ZM90.56 18.48L90.56 18.48Q89.42 18.48 88.38 18.15Q87.33 17.81 86.68 17.20L86.68 17.20L87.25 16.34Q87.84 16.86 88.70 17.17Q89.56 17.48 90.53 17.48L90.53 17.48Q92.11 17.48 92.86 16.75Q93.60 16.01 93.60 14.46L93.60 14.46L93.60 12.38L93.76 10.96L93.65 9.53L93.65 7.02L94.73 7.02L94.73 14.32Q94.73 16.47 93.67 17.47Q92.62 18.48 90.56 18.48ZM90.36 15.01L90.36 15.01Q89.17 15.01 88.22 14.50Q87.27 13.98 86.72 13.06Q86.18 12.15 86.18 10.96L86.18 10.96Q86.18 9.77 86.72 8.86Q87.27 7.95 88.22 7.44Q89.17 6.94 90.36 6.94L90.36 6.94Q91.46 6.94 92.35 7.40Q93.24 7.85 93.76 8.76Q94.28 9.66 94.28 10.96L94.28 10.96Q94.28 12.26 93.76 13.16Q93.24 14.06 92.35 14.54Q91.46 15.01 90.36 15.01ZM90.47 14.01L90.47 14.01Q91.39 14.01 92.10 13.63Q92.81 13.24 93.22 12.55Q93.63 11.86 93.63 10.96L93.63 10.96Q93.63 10.06 93.22 9.37Q92.81 8.69 92.10 8.31Q91.39 7.92 90.47 7.92L90.47 7.92Q89.56 7.92 88.84 8.31Q88.12 8.69 87.72 9.37Q87.32 10.06 87.32 10.96L87.32 10.96Q87.32 11.86 87.72 12.55Q88.12 13.24 88.84 13.63Q89.56 14.01 90.47 14.01ZM108.30 15.33L107.22 15.33L107.22 13.49L107.17 13.19L107.17 10.12Q107.17 9.06 106.58 8.49Q105.99 7.92 104.81 7.92L104.81 7.92Q104.01 7.92 103.28 8.19Q102.55 8.46 102.04 8.90L102.04 8.90L101.54 8.06Q102.17 7.52 103.06 7.23Q103.94 6.94 104.92 6.94L104.92 6.94Q106.54 6.94 107.42 7.74Q108.30 8.54 108.30 10.17L108.30 10.17L108.30 15.33ZM104.35 15.41L104.35 15.41Q103.42 15.41 102.73 15.10Q102.04 14.79 101.68 14.24Q101.31 13.70 101.31 12.98L101.31 12.98Q101.31 12.34 101.62 11.81Q101.93 11.27 102.64 10.95Q103.34 10.63 104.53 10.63L104.53 10.63L107.40 10.63L107.40 11.46L104.56 11.46Q103.36 11.46 102.89 11.89Q102.42 12.32 102.42 12.95L102.42 12.95Q102.42 13.67 102.98 14.09Q103.53 14.52 104.53 14.52L104.53 14.52Q105.48 14.52 106.17 14.09Q106.86 13.65 107.17 12.83L107.17 12.83L107.43 13.60Q107.11 14.43 106.33 14.92Q105.54 15.41 104.35 15.41ZM115.65 15.41L115.65 15.41Q114.55 15.41 113.68 14.91Q112.81 14.41 112.30 13.46Q111.80 12.51 111.80 11.16L111.80 11.16Q111.80 9.80 112.31 8.86Q112.83 7.92 113.70 7.43Q114.57 6.94 115.65 6.94L115.65 6.94Q116.83 6.94 117.78 7.47Q118.72 8.00 119.26 8.95Q119.79 9.90 119.79 11.16L119.79 11.16Q119.79 12.41 119.26 13.37Q118.72 14.33 117.78 14.87Q116.83 15.41 115.65 15.41ZM112.43 15.33L111.35 15.33L111.35 3.58L112.48 3.58L112.48 9.47L112.32 11.15L112.43 12.83L112.43 15.33ZM115.57 14.41L115.57 14.41Q116.45 14.41 117.15 14.01Q117.85 13.60 118.26 12.87Q118.67 12.13 118.67 11.16L118.67 11.16Q118.67 10.18 118.26 9.45Q117.85 8.73 117.15 8.32Q116.45 7.92 115.57 7.92L115.57 7.92Q114.68 7.92 113.97 8.32Q113.27 8.73 112.87 9.45Q112.46 10.18 112.46 11.16L112.46 11.16Q112.46 12.13 112.87 12.87Q113.27 13.60 113.97 14.01Q114.68 14.41 115.57 14.41ZM125.48 15.41L125.48 15.41Q124.28 15.41 123.32 14.86Q122.36 14.32 121.81 13.36Q121.25 12.40 121.25 11.16L121.25 11.16Q121.25 9.91 121.81 8.96Q122.36 8.01 123.31 7.47Q124.26 6.94 125.48 6.94L125.48 6.94Q126.71 6.94 127.67 7.47Q128.63 8.01 129.18 8.96Q129.72 9.91 129.72 11.16L129.72 11.16Q129.72 12.40 129.18 13.36Q128.63 14.32 127.66 14.86Q126.70 15.41 125.48 15.41ZM125.48 14.41L125.48 14.41Q126.38 14.41 127.08 14.01Q127.78 13.60 128.18 12.87Q128.58 12.13 128.58 11.16L128.58 11.16Q128.58 10.18 128.18 9.45Q127.78 8.73 127.08 8.32Q126.38 7.92 125.49 7.92L125.49 7.92Q124.61 7.92 123.91 8.32Q123.21 8.73 122.80 9.45Q122.39 10.18 122.39 11.16L122.39 11.16Q122.39 12.13 122.80 12.87Q123.21 13.60 123.91 14.01Q124.61 14.41 125.48 14.41ZM135.46 15.41L135.46 15.41Q134.39 15.41 133.60 15.01Q132.81 14.62 132.38 13.82Q131.94 13.03 131.94 11.84L131.94 11.84L131.94 7.02L133.06 7.02L133.06 11.72Q133.06 13.05 133.72 13.72Q134.38 14.39 135.57 14.39L135.57 14.39Q136.44 14.39 137.08 14.04Q137.72 13.68 138.06 13.00Q138.40 12.32 138.40 11.37L138.40 11.37L138.40 7.02L139.53 7.02L139.53 15.33L138.45 15.33L138.45 13.05L138.62 13.46Q138.23 14.38 137.40 14.89Q136.56 15.41 135.46 15.41ZM145.29 15.41L145.29 15.41Q144.12 15.41 143.48 14.77Q142.85 14.14 142.85 12.98L142.85 12.98L142.85 5.18L143.97 5.18L143.97 12.92Q143.97 13.65 144.35 14.05Q144.72 14.44 145.42 14.44L145.42 14.44Q146.16 14.44 146.65 14.01L146.65 14.01L147.05 14.82Q146.71 15.12 146.25 15.27Q145.78 15.41 145.29 15.41ZM146.51 7.95L141.36 7.95L141.36 7.02L146.51 7.02L146.51 7.95ZM152.92 15.33L151.70 15.33L156.77 4.24L157.93 4.24L162.99 15.33L161.76 15.33L157.10 4.92L157.58 4.92L152.92 15.33ZM160.84 12.37L153.70 12.37L154.05 11.42L160.49 11.42L160.84 12.37ZM166.00 15.33L164.83 15.33L164.83 4.24L166.00 4.24L166.00 15.33ZM169.49 15.41L169.49 15.41Q169.14 15.41 168.89 15.15Q168.65 14.90 168.65 14.54L168.65 14.54Q168.65 14.16 168.89 13.92Q169.14 13.68 169.49 13.68L169.49 13.68Q169.83 13.68 170.08 13.92Q170.32 14.16 170.32 14.54L170.32 14.54Q170.32 14.90 170.08 15.15Q169.83 15.41 169.49 15.41ZM180.17 15.42L180.17 15.42Q178.94 15.42 177.81 15.02Q176.67 14.62 176.06 13.98L176.06 13.98L176.52 13.08Q177.10 13.65 178.09 14.04Q179.08 14.43 180.17 14.43L180.17 14.43Q181.22 14.43 181.88 14.16Q182.53 13.90 182.84 13.46Q183.15 13.02 183.15 12.48L183.15 12.48Q183.15 11.83 182.78 11.43Q182.41 11.04 181.81 10.81Q181.20 10.58 180.48 10.40Q179.75 10.23 179.02 10.03Q178.29 9.83 177.68 9.50Q177.07 9.17 176.70 8.62Q176.33 8.08 176.33 7.19L176.33 7.19Q176.33 6.37 176.76 5.68Q177.20 4.99 178.10 4.57Q179.00 4.15 180.41 4.15L180.41 4.15Q181.35 4.15 182.26 4.41Q183.18 4.67 183.85 5.13L183.85 5.13L183.45 6.06Q182.74 5.59 181.94 5.37Q181.14 5.15 180.40 5.15L180.40 5.15Q179.40 5.15 178.75 5.42Q178.10 5.68 177.79 6.14Q177.48 6.59 177.48 7.16L177.48 7.16Q177.48 7.81 177.85 8.20Q178.23 8.60 178.84 8.82Q179.45 9.04 180.17 9.22Q180.90 9.39 181.62 9.60Q182.34 9.80 182.95 10.13Q183.56 10.45 183.94 10.99Q184.31 11.53 184.31 12.40L184.31 12.40Q184.31 13.21 183.86 13.90Q183.42 14.58 182.51 15.00Q181.60 15.42 180.17 15.42ZM189.25 15.41L189.25 15.41Q188.08 15.41 187.44 14.77Q186.81 14.14 186.81 12.98L186.81 12.98L186.81 5.18L187.93 5.18L187.93 12.92Q187.93 13.65 188.31 14.05Q188.68 14.44 189.37 14.44L189.37 14.44Q190.12 14.44 190.61 14.01L190.61 14.01L191.01 14.82Q190.67 15.12 190.21 15.27Q189.74 15.41 189.25 15.41ZM190.47 7.95L185.32 7.95L185.32 7.02L190.47 7.02L190.47 7.95ZM199.34 15.33L198.26 15.33L198.26 13.49L198.21 13.19L198.21 10.12Q198.21 9.06 197.62 8.49Q197.02 7.92 195.85 7.92L195.85 7.92Q195.04 7.92 194.32 8.19Q193.59 8.46 193.08 8.90L193.08 8.90L192.57 8.06Q193.21 7.52 194.09 7.23Q194.98 6.94 195.96 6.94L195.96 6.94Q197.58 6.94 198.46 7.74Q199.34 8.54 199.34 10.17L199.34 10.17L199.34 15.33ZM195.39 15.41L195.39 15.41Q194.46 15.41 193.77 15.10Q193.08 14.79 192.72 14.24Q192.35 13.70 192.35 12.98L192.35 12.98Q192.35 12.34 192.66 11.81Q192.97 11.27 193.67 10.95Q194.38 10.63 195.57 10.63L195.57 10.63L198.43 10.63L198.43 11.46L195.60 11.46Q194.39 11.46 193.93 11.89Q193.46 12.32 193.46 12.95L193.46 12.95Q193.46 13.67 194.01 14.09Q194.57 14.52 195.57 14.52L195.57 14.52Q196.52 14.52 197.21 14.09Q197.89 13.65 198.21 12.83L198.21 12.83L198.46 13.60Q198.15 14.43 197.36 14.92Q196.58 15.41 195.39 15.41ZM203.52 15.33L202.39 15.33L202.39 7.02L203.47 7.02L203.47 9.28L203.36 8.88Q203.71 7.93 204.53 7.43Q205.35 6.94 206.57 6.94L206.57 6.94L206.57 8.03Q206.51 8.03 206.45 8.02Q206.38 8.01 206.32 8.01L206.32 8.01Q205.00 8.01 204.26 8.81Q203.52 9.61 203.52 11.08L203.52 11.08L203.52 15.33ZM211.37 15.41L211.37 15.41Q210.20 15.41 209.56 14.77Q208.93 14.14 208.93 12.98L208.93 12.98L208.93 5.18L210.06 5.18L210.06 12.92Q210.06 13.65 210.43 14.05Q210.80 14.44 211.50 14.44L211.50 14.44Q212.24 14.44 212.73 14.01L212.73 14.01L213.13 14.82Q212.80 15.12 212.33 15.27Q211.86 15.41 211.37 15.41ZM212.59 7.95L207.44 7.95L207.44 7.02L212.59 7.02L212.59 7.95ZM222.77 15.41L222.77 15.41Q221.54 15.41 220.56 14.86Q219.59 14.32 219.03 13.36Q218.48 12.40 218.48 11.16L218.48 11.16Q218.48 9.91 219.03 8.96Q219.59 8.01 220.56 7.47Q221.54 6.94 222.77 6.94L222.77 6.94Q223.83 6.94 224.69 7.35Q225.54 7.76 226.03 8.58L226.03 8.58L225.19 9.15Q224.77 8.52 224.13 8.22Q223.50 7.92 222.76 7.92L222.76 7.92Q221.87 7.92 221.16 8.32Q220.44 8.73 220.03 9.45Q219.62 10.18 219.62 11.16L219.62 11.16Q219.62 12.15 220.03 12.87Q220.44 13.60 221.16 14.01Q221.87 14.41 222.76 14.41L222.76 14.41Q223.50 14.41 224.13 14.11Q224.77 13.81 225.19 13.19L225.19 13.19L226.03 13.76Q225.54 14.57 224.69 14.99Q223.83 15.41 222.77 15.41ZM229.36 15.33L228.23 15.33L228.23 3.58L229.36 3.58L229.36 15.33ZM235.88 15.41L235.88 15.41Q234.68 15.41 233.72 14.86Q232.76 14.32 232.21 13.36Q231.65 12.40 231.65 11.16L231.65 11.16Q231.65 9.91 232.21 8.96Q232.76 8.01 233.71 7.47Q234.66 6.94 235.88 6.94L235.88 6.94Q237.12 6.94 238.08 7.47Q239.03 8.01 239.58 8.96Q240.13 9.91 240.13 11.16L240.13 11.16Q240.13 12.40 239.58 13.36Q239.03 14.32 238.07 14.86Q237.10 15.41 235.88 15.41ZM235.88 14.41L235.88 14.41Q236.79 14.41 237.48 14.01Q238.18 13.60 238.58 12.87Q238.99 12.13 238.99 11.16L238.99 11.16Q238.99 10.18 238.58 9.45Q238.18 8.73 237.48 8.32Q236.79 7.92 235.90 7.92L235.90 7.92Q235.01 7.92 234.32 8.32Q233.62 8.73 233.21 9.45Q232.80 10.18 232.80 11.16L232.80 11.16Q232.80 12.13 233.21 12.87Q233.62 13.60 234.32 14.01Q235.01 14.41 235.88 14.41ZM244.66 15.41L244.66 15.41Q243.63 15.41 242.71 15.11Q241.79 14.82 241.27 14.38L241.27 14.38L241.77 13.49Q242.28 13.87 243.07 14.15Q243.86 14.43 244.73 14.43L244.73 14.43Q245.92 14.43 246.45 14.05Q246.97 13.68 246.97 13.06L246.97 13.06Q246.97 12.60 246.67 12.34Q246.38 12.08 245.91 11.95Q245.43 11.81 244.85 11.72Q244.26 11.62 243.68 11.50Q243.10 11.37 242.63 11.12Q242.15 10.88 241.86 10.45Q241.57 10.02 241.57 9.31L241.57 9.31Q241.57 8.63 241.95 8.09Q242.33 7.55 243.06 7.24Q243.80 6.94 244.86 6.94L244.86 6.94Q245.67 6.94 246.48 7.15Q247.28 7.36 247.81 7.71L247.81 7.71L247.32 8.61Q246.76 8.23 246.13 8.07Q245.50 7.90 244.86 7.90L244.86 7.90Q243.74 7.90 243.21 8.29Q242.68 8.68 242.68 9.28L242.68 9.28Q242.68 9.75 242.97 10.02Q243.26 10.29 243.75 10.44Q244.23 10.59 244.81 10.69Q245.38 10.78 245.96 10.92Q246.54 11.05 247.02 11.28Q247.51 11.51 247.80 11.93Q248.09 12.35 248.09 13.03L248.09 13.03Q248.09 13.76 247.69 14.29Q247.28 14.82 246.52 15.11Q245.75 15.41 244.66 15.41ZM251.27 15.33L250.15 15.33L250.15 7.02L251.27 7.02L251.27 15.33ZM250.72 5.18L250.72 5.18Q250.37 5.18 250.13 4.94Q249.90 4.70 249.90 4.37L249.90 4.37Q249.90 4.04 250.13 3.81Q250.37 3.58 250.72 3.58L250.72 3.58Q251.07 3.58 251.31 3.80Q251.54 4.02 251.54 4.35L251.54 4.35Q251.54 4.70 251.31 4.94Q251.08 5.18 250.72 5.18ZM255.53 15.33L254.41 15.33L254.41 7.02L255.49 7.02L255.49 9.30L255.31 8.87Q255.71 7.97 256.58 7.45Q257.45 6.94 258.65 6.94L258.65 6.94Q259.67 6.94 260.44 7.32Q261.20 7.71 261.64 8.50Q262.07 9.30 262.07 10.50L262.07 10.50L262.07 15.33L260.95 15.33L260.95 10.61Q260.95 9.30 260.29 8.62Q259.64 7.95 258.45 7.95L258.45 7.95Q257.56 7.95 256.90 8.31Q256.25 8.66 255.89 9.33Q255.53 10.01 255.53 10.96L255.53 10.96L255.53 15.33ZM268.66 18.48L268.66 18.48Q267.52 18.48 266.48 18.15Q265.43 17.81 264.78 17.20L264.78 17.20L265.35 16.34Q265.94 16.86 266.80 17.17Q267.66 17.48 268.63 17.48L268.63 17.48Q270.21 17.48 270.96 16.75Q271.70 16.01 271.70 14.46L271.70 14.46L271.70 12.38L271.86 10.96L271.75 9.53L271.75 7.02L272.83 7.02L272.83 14.32Q272.83 16.47 271.77 17.47Q270.72 18.48 268.66 18.48ZM268.46 15.01L268.46 15.01Q267.27 15.01 266.32 14.50Q265.37 13.98 264.82 13.06Q264.28 12.15 264.28 10.96L264.28 10.96Q264.28 9.77 264.82 8.86Q265.37 7.95 266.32 7.44Q267.27 6.94 268.46 6.94L268.46 6.94Q269.56 6.94 270.45 7.40Q271.34 7.85 271.86 8.76Q272.38 9.66 272.38 10.96L272.38 10.96Q272.38 12.26 271.86 13.16Q271.34 14.06 270.45 14.54Q269.56 15.01 268.46 15.01ZM268.57 14.01L268.57 14.01Q269.49 14.01 270.20 13.63Q270.91 13.24 271.32 12.55Q271.73 11.86 271.73 10.96L271.73 10.96Q271.73 10.06 271.32 9.37Q270.91 8.69 270.20 8.31Q269.49 7.92 268.57 7.92L268.57 7.92Q267.66 7.92 266.94 8.31Q266.22 8.69 265.82 9.37Q265.42 10.06 265.42 10.96L265.42 10.96Q265.42 11.86 265.82 12.55Q266.22 13.24 266.94 13.63Q267.66 14.01 268.57 14.01ZM282.87 15.33L281.81 15.33L278.67 7.02L279.75 7.02L282.60 14.73L282.11 14.73L285.04 7.02L286.00 7.02L288.90 14.73L288.41 14.73L291.31 7.02L292.34 7.02L289.18 15.33L288.12 15.33L285.34 8.08L285.67 8.08L282.87 15.33ZM295.15 15.33L294.03 15.33L294.03 7.02L295.15 7.02L295.15 15.33ZM294.60 5.18L294.60 5.18Q294.25 5.18 294.01 4.94Q293.78 4.70 293.78 4.37L293.78 4.37Q293.78 4.04 294.01 3.81Q294.25 3.58 294.60 3.58L294.60 3.58Q294.95 3.58 295.19 3.80Q295.42 4.02 295.42 4.35L295.42 4.35Q295.42 4.70 295.19 4.94Q294.96 5.18 294.60 5.18ZM300.92 15.41L300.92 15.41Q299.75 15.41 299.11 14.77Q298.48 14.14 298.48 12.98L298.48 12.98L298.48 5.18L299.60 5.18L299.60 12.92Q299.60 13.65 299.98 14.05Q300.35 14.44 301.05 14.44L301.05 14.44Q301.79 14.44 302.28 14.01L302.28 14.01L302.68 14.82Q302.34 15.12 301.88 15.27Q301.41 15.41 300.92 15.41ZM302.14 7.95L296.99 7.95L296.99 7.02L302.14 7.02L302.14 7.95ZM305.84 15.33L304.72 15.33L304.72 3.58L305.84 3.58L305.84 9.30L305.62 8.87Q306.02 7.97 306.89 7.45Q307.76 6.94 308.96 6.94L308.96 6.94Q309.98 6.94 310.74 7.32Q311.51 7.71 311.95 8.50Q312.38 9.30 312.38 10.50L312.38 10.50L312.38 15.33L311.26 15.33L311.26 10.61Q311.26 9.30 310.60 8.62Q309.94 7.95 308.76 7.95L308.76 7.95Q307.87 7.95 307.21 8.31Q306.56 8.66 306.20 9.33Q305.84 10.01 305.84 10.96L305.84 10.96L305.84 15.33ZM320.70 15.33L319.57 15.33L319.57 7.02L320.70 7.02L320.70 15.33ZM320.14 5.18L320.14 5.18Q319.79 5.18 319.56 4.94Q319.32 4.70 319.32 4.37L319.32 4.37Q319.32 4.04 319.56 3.81Q319.79 3.58 320.14 3.58L320.14 3.58Q320.49 3.58 320.73 3.80Q320.97 4.02 320.97 4.35L320.97 4.35Q320.97 4.70 320.74 4.94Q320.51 5.18 320.14 5.18ZM326.46 15.41L326.46 15.41Q325.29 15.41 324.66 14.77Q324.02 14.14 324.02 12.98L324.02 12.98L324.02 5.18L325.15 5.18L325.15 12.92Q325.15 13.65 325.52 14.05Q325.89 14.44 326.59 14.44L326.59 14.44Q327.33 14.44 327.82 14.01L327.82 14.01L328.22 14.82Q327.89 15.12 327.42 15.27Q326.95 15.41 326.46 15.41ZM327.68 7.95L322.53 7.95L322.53 7.02L327.68 7.02L327.68 7.95Z" transform="translate(0, 0)"></path></g></svg> <svg xmlns="http://www.w3.org/2000/svg" x="157.5254732942821" y="270.0385505610787" viewBox="1.9000000953674316 9.210000038146973 246.07000732421875 28.40999984741211" height="28.40999984741211" width="246.07000732421875" style="overflow: visible;"><g fill="#383539" fill-opacity="1" style=""><path d="M12.12 37.62L12.12 37.62Q9.17 37.62 6.87 36.31Q4.57 34.99 3.23 32.67Q1.90 30.35 1.90 27.37L1.90 27.37Q1.90 24.35 3.23 22.03Q4.57 19.70 6.87 18.41Q9.17 17.11 12.12 17.11L12.12 17.11Q14.55 17.11 16.55 18.04Q18.54 18.97 19.78 20.83L19.78 20.83L18.35 21.87Q17.26 20.32 15.64 19.59Q14.01 18.85 12.12 18.85L12.12 18.85Q9.75 18.85 7.88 19.92Q6.00 20.98 4.94 22.90Q3.87 24.81 3.87 27.37L3.87 27.37Q3.87 29.92 4.94 31.84Q6.00 33.75 7.88 34.82Q9.75 35.88 12.12 35.88L12.12 35.88Q14.01 35.88 15.64 35.15Q17.26 34.41 18.35 32.86L18.35 32.86L19.78 33.91Q18.54 35.77 16.55 36.70Q14.55 37.62 12.12 37.62ZM39.29 37.62L39.29 37.62Q36.39 37.62 34.12 36.31Q31.86 34.99 30.52 32.67Q29.19 30.35 29.19 27.37L29.19 27.37Q29.19 24.35 30.52 22.04Q31.86 19.74 34.12 18.43Q36.39 17.11 39.29 17.11L39.29 17.11Q42.19 17.11 44.48 18.43Q46.76 19.74 48.08 22.04Q49.39 24.35 49.39 27.37L49.39 27.37Q49.39 30.35 48.08 32.67Q46.76 34.99 44.48 36.31Q42.19 37.62 39.29 37.62ZM39.29 35.88L39.29 35.88Q41.61 35.88 43.47 34.82Q45.33 33.75 46.37 31.82Q47.42 29.88 47.42 27.37L47.42 27.37Q47.42 24.81 46.37 22.90Q45.33 20.98 43.47 19.92Q41.61 18.85 39.29 18.85L39.29 18.85Q36.97 18.85 35.13 19.92Q33.29 20.98 32.22 22.90Q31.16 24.81 31.16 27.37L31.16 27.37Q31.16 29.88 32.22 31.82Q33.29 33.75 35.13 34.82Q36.97 35.88 39.29 35.88ZM63.13 37.47L61.20 37.47L61.20 17.26L63.06 17.26L63.06 22.80L62.86 22.18Q63.71 19.74 65.73 18.43Q67.74 17.11 70.76 17.11L70.76 17.11L70.76 19.01Q70.64 19.01 70.53 18.99Q70.41 18.97 70.29 18.97L70.29 18.97Q66.93 18.97 65.03 21.08Q63.13 23.19 63.13 26.94L63.13 26.94L63.13 37.47ZM90.46 37.62L90.46 37.62Q87.40 37.62 85.06 36.31Q82.72 34.99 81.38 32.67Q80.05 30.35 80.05 27.37L80.05 27.37Q80.05 24.35 81.31 22.04Q82.57 19.74 84.77 18.43Q86.98 17.11 89.73 17.11L89.73 17.11Q92.47 17.11 94.66 18.39Q96.85 19.66 98.11 21.97Q99.36 24.27 99.36 27.29L99.36 27.29Q99.36 27.41 99.35 27.54Q99.33 27.68 99.33 27.83L99.33 27.83L81.48 27.83L81.48 26.32L98.28 26.32L97.51 27.06Q97.55 24.70 96.52 22.82Q95.49 20.94 93.75 19.88Q92.01 18.81 89.73 18.81L89.73 18.81Q87.48 18.81 85.72 19.88Q83.96 20.94 82.95 22.82Q81.95 24.70 81.95 27.10L81.95 27.10L81.95 27.44Q81.95 29.92 83.05 31.84Q84.15 33.75 86.09 34.82Q88.02 35.88 90.50 35.88L90.50 35.88Q92.44 35.88 94.12 35.19Q95.80 34.49 96.96 33.06L96.96 33.06L98.09 34.33Q96.77 35.96 94.78 36.79Q92.78 37.62 90.46 37.62ZM116.28 37.62L116.28 37.62Q113.76 37.62 111.58 36.89Q109.39 36.15 108.19 35.03L108.19 35.03L109.08 33.48Q110.24 34.49 112.18 35.21Q114.11 35.92 116.36 35.92L116.36 35.92Q119.53 35.92 120.93 34.88Q122.32 33.83 122.32 32.13L122.32 32.13Q122.32 30.89 121.60 30.17Q120.89 29.46 119.69 29.07Q118.49 28.68 117.05 28.43Q115.62 28.18 114.19 27.87Q112.76 27.56 111.56 26.98Q110.36 26.40 109.64 25.37Q108.93 24.35 108.93 22.64L108.93 22.64Q108.93 21.10 109.78 19.86Q110.63 18.62 112.33 17.86Q114.04 17.11 116.59 17.11L116.59 17.11Q118.49 17.11 120.40 17.65Q122.32 18.19 123.52 19.08L123.52 19.08L122.63 20.63Q121.35 19.66 119.76 19.24Q118.18 18.81 116.55 18.81L116.55 18.81Q113.61 18.81 112.24 19.90Q110.86 20.98 110.86 22.61L110.86 22.61Q110.86 23.88 111.58 24.64Q112.29 25.39 113.49 25.80Q114.69 26.21 116.13 26.46Q117.56 26.71 118.99 27.02Q120.42 27.33 121.62 27.89Q122.82 28.45 123.54 29.44Q124.25 30.42 124.25 32.09L124.25 32.09Q124.25 33.75 123.34 34.99Q122.44 36.23 120.65 36.93Q118.87 37.62 116.28 37.62ZM143.69 37.62L143.69 37.62Q140.63 37.62 138.29 36.31Q135.94 34.99 134.61 32.67Q133.27 30.35 133.27 27.37L133.27 27.37Q133.27 24.35 134.53 22.04Q135.79 19.74 138.00 18.43Q140.20 17.11 142.95 17.11L142.95 17.11Q145.70 17.11 147.89 18.39Q150.07 19.66 151.33 21.97Q152.59 24.27 152.59 27.29L152.59 27.29Q152.59 27.41 152.57 27.54Q152.55 27.68 152.55 27.83L152.55 27.83L134.71 27.83L134.71 26.32L151.51 26.32L150.73 27.06Q150.77 24.70 149.74 22.82Q148.72 20.94 146.98 19.88Q145.23 18.81 142.95 18.81L142.95 18.81Q140.71 18.81 138.94 19.88Q137.18 20.94 136.18 22.82Q135.17 24.70 135.17 27.10L135.17 27.10L135.17 27.44Q135.17 29.92 136.27 31.84Q137.38 33.75 139.31 34.82Q141.25 35.88 143.72 35.88L143.72 35.88Q145.66 35.88 147.34 35.19Q149.03 34.49 150.19 33.06L150.19 33.06L151.31 34.33Q150.00 35.96 148.00 36.79Q146.01 37.62 143.69 37.62ZM166.33 37.47L164.40 37.47L164.40 17.26L166.25 17.26L166.25 22.88L165.98 22.26Q166.91 19.86 169.04 18.48Q171.17 17.11 174.27 17.11L174.27 17.11Q176.74 17.11 178.58 18.06Q180.42 19.01 181.45 20.92Q182.47 22.84 182.47 25.66L182.47 25.66L182.47 37.47L180.54 37.47L180.54 25.82Q180.54 22.41 178.81 20.63Q177.09 18.85 174.00 18.85L174.00 18.85Q171.63 18.85 169.89 19.82Q168.15 20.79 167.24 22.53Q166.33 24.27 166.33 26.71L166.33 26.71L166.33 37.47ZM202.14 37.62L202.14 37.62Q199.47 37.62 198.05 36.15Q196.64 34.68 196.64 32.13L196.64 32.13L196.64 12.85L198.57 12.85L198.57 31.93Q198.57 33.87 199.54 34.92Q200.51 35.96 202.33 35.96L202.33 35.96Q204.23 35.96 205.47 34.84L205.47 34.84L206.28 36.19Q205.50 36.93 204.40 37.28Q203.30 37.62 202.14 37.62ZM205.00 18.93L192.92 18.93L192.92 17.26L205.00 17.26L205.00 18.93ZM219.40 37.47L217.46 37.47L217.46 17.26L219.40 17.26L219.40 37.47ZM218.43 12.35L218.43 12.35Q217.77 12.35 217.31 11.88Q216.85 11.42 216.85 10.80L216.85 10.80Q216.85 10.14 217.31 9.68Q217.77 9.21 218.43 9.21L218.43 9.21Q219.13 9.21 219.57 9.66Q220.02 10.10 220.02 10.76L220.02 10.76Q220.02 11.42 219.57 11.88Q219.13 12.35 218.43 12.35ZM247.97 37.47L246.11 37.47L246.11 32.86L246.03 32.17L246.03 24.58Q246.03 21.75 244.50 20.28Q242.97 18.81 240.03 18.81L240.03 18.81Q237.94 18.81 236.14 19.53Q234.34 20.24 233.06 21.37L233.06 21.37L232.10 19.97Q233.61 18.62 235.74 17.86Q237.86 17.11 240.19 17.11L240.19 17.11Q243.94 17.11 245.95 19.01Q247.97 20.90 247.97 24.66L247.97 24.66L247.97 37.47ZM238.83 37.62L238.83 37.62Q236.59 37.62 234.94 36.91Q233.30 36.19 232.43 34.88Q231.55 33.56 231.55 31.86L231.55 31.86Q231.55 30.31 232.27 29.05Q232.99 27.79 234.65 27.00Q236.32 26.21 239.10 26.21L239.10 26.21L246.53 26.21L246.53 27.72L239.14 27.72Q236.01 27.72 234.75 28.88Q233.49 30.04 233.49 31.78L233.49 31.78Q233.49 33.72 234.96 34.88Q236.43 36.04 239.10 36.04L239.10 36.04Q241.66 36.04 243.42 34.88Q245.18 33.72 246.03 31.51L246.03 31.51L246.57 32.82Q245.76 35.03 243.81 36.33Q241.85 37.62 238.83 37.62Z" transform="translate(0, 0)"></path></g></svg></svg>