<svg xmlns="http://www.w3.org/2000/svg" viewBox="19.999999999999986 175.94509608808343 535.0058253355853 223.1098078238331"><rect height="100%" width="100%" x="19.999999999999986" y="175.94509608808343" fill="rgba(255, 255, 255, 0)"/> <svg xmlns="http://www.w3.org/2000/svg" xmlns:xlink="http://www.w3.org/1999/xlink" version="1.1" x="89.99999999999999" y="245.94509608808343" viewBox="1.6639127731323242 2 76.07217407226562 86.79999542236328" xml:space="preserve" height="83.10980782383312" width="72.83804197230808" preserveAspectRatio="xMinYMin" enable-background="new 0 0 79.4 90.7" style="overflow: visible;"><g id="Layer_3" style=""></g><path class="st36" d="M65.4,45.4c0,1.5,0.6,2.4,1,3.2c0.5,0.9,1.2,1.7,1.9,2.5c0.7,0.7,1.5,1.4,2.5,1.9c0.9,0.5,1.9,1,3.2,1.2    c2.4,0.3,4,2.6,3.7,4.9s-2.6,4-4.9,3.7c-2-0.3-3.4-1.8-3.7-3.7c-0.2-1.3-0.6-2.3-1.2-3.2c-0.5-0.9-1.2-1.7-1.9-2.5    c-0.7-0.7-1.5-1.4-2.5-1.9c-0.9-0.5-2-0.9-3.2-1.2c-2.5-0.5-4-2.5-4-5l0,0c0-2.4,1.5-4.4,4-5c1.3-0.3,2.3-0.6,3.2-1.2    c0.9-0.5,1.7-1.2,2.5-1.9c0.7-0.7,1.4-1.5,1.9-2.5c0.5-0.9,1-1.9,1.2-3.2c0.3-1.9,1.7-3.4,3.7-3.7c2.4-0.3,4.6,1.3,4.9,3.7    s-1.3,4.6-3.7,4.9c-1.3,0.2-2.3,0.6-3.2,1.2c-0.9,0.5-1.7,1.2-2.5,1.9c-0.7,0.7-1.4,1.5-1.9,2.5C66,42.9,65.4,43.9,65.4,45.4z" style="fill: #62D4F9;"></path><path class="st23" d="M34.9,49.1c0.8-0.6,1.6-0.9,2.4-1.1c0.8-0.2,1.6-0.3,2.4-0.3c0.8,0,1.6,0.1,2.4,0.3c0.8,0.2,1.6,0.5,2.4,1.1    c2.1,1.5,5,1.1,6.5-0.9c1.5-2.1,1.1-5-0.9-6.5c-1.7-1.3-4-1.2-5.6,0c-0.8,0.6-1.6,0.9-2.4,1.1c-0.8,0.2-1.6,0.3-2.4,0.3    c-0.8,0-1.6-0.1-2.4-0.3c-0.8-0.2-1.6-0.5-2.4-1.1c-2.1-1.5-5-1.1-6.5,0.9c-1.5,2.1-1.1,5,0.9,6.5C31.1,50.3,33.3,50.3,34.9,49.1z    " style="fill: #2A50DF;"></path><path class="st35" d="M37.6,23.6c0.3-1.9,0.5-2.6,0.5-4.5c0-1.9-0.2-2.6-0.5-4.5c-0.4-2.2-1.1-3.2-2.2-5.6c-0.7-1.5-0.7-3,0-4.4    C36.2,2.9,37.9,2,39.7,2c1.8,0,3.5,1,4.4,2.7c0.7,1.4,0.7,2.9,0,4.4c-1.2,2.4-1.8,3.4-2.2,5.6c-0.3,1.9-0.5,2.6-0.5,4.5    c0,1.9,0.2,2.6,0.5,4.5c0.4,2.2,1.1,3.2,2.2,5.6c0.7,1.5,0.7,3,0,4.4c-0.9,1.7-2.6,2.7-4.4,2.7c-1.8,0-3.5-1-4.4-2.7    c-0.7-1.4-0.7-2.9,0-4.4C36.5,26.8,37.2,25.8,37.6,23.6z" style="fill: #1099E7;"></path><path class="st36" d="M56.9,15.2c0.3,1.3,0.3,2.5,0.1,3.7c-0.2,1.1-0.5,2.2-0.9,3.2c-0.4,1-1,2-1.7,2.9c-0.7,0.9-1.5,1.8-2.7,2.5    c-2.2,1.3-3,4.2-1.7,6.5s4.2,3,6.5,1.7c1.8-1.1,2.7-3.2,2.2-5.2c-0.3-1.3-0.3-2.5-0.1-3.7c0.2-1.1,0.5-2.2,0.9-3.2    c0.4-1,1-2,1.7-2.9c0.7-0.9,1.5-1.8,2.7-2.5c2.2-1.3,3-4.2,1.7-6.5s-4.2-3-6.5-1.7C57.2,11.1,56.4,13.3,56.9,15.2z" style="fill: #62D4F9;"></path><path class="st23" d="M37.6,67.1c0.3,1.9,0.5,2.6,0.5,4.5c0,1.9-0.2,2.6-0.5,4.5c-0.4,2.2-1.1,3.2-2.2,5.6c-0.7,1.5-0.7,3,0,4.4    c0.9,1.7,2.6,2.7,4.4,2.7c1.8,0,3.5-1,4.4-2.7c0.7-1.4,0.7-2.9,0-4.4c-1.2-2.4-1.8-3.4-2.2-5.6c-0.3-1.9-0.5-2.6-0.5-4.5    c0-1.9,0.2-2.6,0.5-4.5c0.4-2.2,1.1-3.2,2.2-5.6c0.7-1.5,0.7-3,0-4.4c-0.9-1.7-2.6-2.7-4.4-2.7c-1.8,0-3.5,1-4.4,2.7    c-0.7,1.4-0.7,2.9,0,4.4C36.5,63.9,37.2,64.9,37.6,67.1z" style="fill: #2A50DF;"></path><path class="st36" d="M56.9,75.5c0.3-1.3,0.3-2.5,0.1-3.7c-0.2-1.1-0.5-2.2-0.9-3.2c-0.4-1-1-2-1.7-2.9c-0.7-0.9-1.5-1.8-2.7-2.5    c-2.2-1.3-3-4.2-1.7-6.5s4.2-3,6.5-1.7c1.8,1.1,2.7,3.2,2.2,5.2c-0.3,1.3-0.3,2.5-0.1,3.7c0.2,1.1,0.5,2.2,0.9,3.2    c0.4,1,1,2,1.7,2.9c0.7,0.9,1.5,1.8,2.7,2.5c2.2,1.3,3,4.2,1.7,6.5s-4.2,3-6.5,1.7C57.2,79.6,56.4,77.5,56.9,75.5z" style="fill: #62D4F9;"></path><path class="st35" d="M14,45.4c0,1.5-0.6,2.4-1,3.2c-0.5,0.9-1.2,1.7-1.9,2.5c-0.7,0.7-1.5,1.4-2.5,1.9c-0.9,0.5-1.9,1-3.2,1.2    c-2.4,0.3-4,2.6-3.7,4.9s2.6,4,4.9,3.7c2-0.3,3.4-1.8,3.7-3.7c0.2-1.3,0.6-2.3,1.2-3.2c0.5-0.9,1.2-1.7,1.9-2.5    c0.7-0.7,1.5-1.4,2.5-1.9c0.9-0.5,2-0.9,3.2-1.2c2.5-0.5,4-2.5,4-5l0,0c0-2.4-1.5-4.4-4-5c-1.3-0.3-2.3-0.6-3.2-1.2    c-0.9-0.5-1.7-1.2-2.5-1.9c-0.7-0.7-1.4-1.5-1.9-2.5c-0.5-0.9-1-1.9-1.2-3.2C10,29.8,8.6,28.2,6.6,28c-2.4-0.3-4.6,1.3-4.9,3.7    s1.3,4.6,3.7,4.9c1.3,0.2,2.3,0.6,3.2,1.2c0.9,0.5,1.7,1.2,2.5,1.9c0.7,0.7,1.4,1.5,1.9,2.5C13.4,42.9,14,43.9,14,45.4z" style="fill: #1099E7;"></path><path class="st35" d="M22.5,15.2c-0.3,1.3-0.3,2.5-0.1,3.7c0.2,1.1,0.5,2.2,0.9,3.2c0.4,1,1,2,1.7,2.9c0.7,0.9,1.5,1.8,2.7,2.5    c2.2,1.3,3,4.2,1.7,6.5c-1.3,2.2-4.2,3-6.5,1.7c-1.8-1.1-2.7-3.2-2.2-5.2c0.3-1.3,0.3-2.5,0.1-3.7c-0.2-1.1-0.5-2.2-0.9-3.2    c-0.4-1-1-2-1.7-2.9c-0.7-0.9-1.5-1.8-2.7-2.5c-2.2-1.3-3-4.2-1.7-6.5s4.2-3,6.5-1.7C22.1,11.1,23,13.3,22.5,15.2z" style="fill: #1099E7;"></path><path class="st23" d="M22.5,75.5c-0.3-1.3-0.3-2.5-0.1-3.7c0.2-1.1,0.5-2.2,0.9-3.2c0.4-1,1-2,1.7-2.9c0.7-0.9,1.5-1.8,2.7-2.5    c2.2-1.3,3-4.2,1.7-6.5c-1.3-2.2-4.2-3-6.5-1.7c-1.8,1.1-2.7,3.2-2.2,5.2c0.3,1.3,0.3,2.5,0.1,3.7c-0.2,1.1-0.5,2.2-0.9,3.2    c-0.4,1-1,2-1.7,2.9c-0.7,0.9-1.5,1.8-2.7,2.5c-2.2,1.3-3,4.2-1.7,6.5s4.2,3,6.5,1.7C22.1,79.6,23,77.5,22.5,75.5z" style="fill: #2A50DF;"></path></svg> <svg x="175.05584364613213" y="266.5820080604209" viewBox="2.390000104904175 11.600000381469727 309.9499816894531 35.790000915527344" height="35.790000915527344" width="309.9499816894531" xmlns="http://www.w3.org/2000/svg" style="overflow: visible;"><g fill="#FFFFFF" fill-opacity="1" style=""><path d="M15.26 47.39L15.26 47.39Q11.56 47.39 8.65 45.73Q5.75 44.08 4.07 41.15Q2.39 38.23 2.39 34.47L2.39 34.47Q2.39 30.67 4.07 27.74Q5.75 24.82 8.65 23.18Q11.56 21.55 15.26 21.55L15.26 21.55Q18.33 21.55 20.84 22.72Q23.35 23.89 24.92 26.23L24.92 26.23L23.11 27.55Q21.75 25.60 19.70 24.67Q17.65 23.75 15.26 23.75L15.26 23.75Q12.29 23.75 9.92 25.09Q7.56 26.43 6.22 28.84Q4.88 31.25 4.88 34.47L4.88 34.47Q4.88 37.69 6.22 40.10Q7.56 42.52 9.92 43.86Q12.29 45.20 15.26 45.20L15.26 45.20Q17.65 45.20 19.70 44.27Q21.75 43.35 23.11 41.40L23.11 41.40L24.92 42.71Q23.35 45.05 20.84 46.22Q18.33 47.39 15.26 47.39ZM49.49 47.39L49.49 47.39Q45.83 47.39 42.98 45.73Q40.13 44.08 38.45 41.15Q36.76 38.23 36.76 34.47L36.76 34.47Q36.76 30.67 38.45 27.77Q40.13 24.87 42.98 23.21Q45.83 21.55 49.49 21.55L49.49 21.55Q53.15 21.55 56.02 23.21Q58.90 24.87 60.56 27.77Q62.21 30.67 62.21 34.47L62.21 34.47Q62.21 38.23 60.56 41.15Q58.90 44.08 56.02 45.73Q53.15 47.39 49.49 47.39ZM49.49 45.20L49.49 45.20Q52.41 45.20 54.75 43.86Q57.10 42.52 58.41 40.08Q59.73 37.64 59.73 34.47L59.73 34.47Q59.73 31.25 58.41 28.84Q57.10 26.43 54.75 25.09Q52.41 23.75 49.49 23.75L49.49 23.75Q46.56 23.75 44.25 25.09Q41.93 26.43 40.59 28.84Q39.25 31.25 39.25 34.47L39.25 34.47Q39.25 37.64 40.59 40.08Q41.93 42.52 44.25 43.86Q46.56 45.20 49.49 45.20ZM79.52 47.20L77.09 47.20L77.09 21.75L79.43 21.75L79.43 28.72L79.18 27.94Q80.26 24.87 82.79 23.21Q85.33 21.55 89.13 21.55L89.13 21.55L89.13 23.94Q88.98 23.94 88.84 23.92Q88.69 23.89 88.54 23.89L88.54 23.89Q84.30 23.89 81.91 26.55Q79.52 29.21 79.52 33.94L79.52 33.94L79.52 47.20ZM113.95 47.39L113.95 47.39Q110.10 47.39 107.15 45.73Q104.20 44.08 102.51 41.15Q100.83 38.23 100.83 34.47L100.83 34.47Q100.83 30.67 102.42 27.77Q104.00 24.87 106.78 23.21Q109.56 21.55 113.02 21.55L113.02 21.55Q116.48 21.55 119.24 23.16Q121.99 24.77 123.58 27.67Q125.16 30.57 125.16 34.37L125.16 34.37Q125.16 34.52 125.14 34.69Q125.11 34.86 125.11 35.06L125.11 35.06L102.64 35.06L102.64 33.16L123.80 33.16L122.82 34.08Q122.87 31.11 121.58 28.74Q120.29 26.38 118.09 25.04Q115.90 23.70 113.02 23.70L113.02 23.70Q110.19 23.70 107.97 25.04Q105.76 26.38 104.49 28.74Q103.22 31.11 103.22 34.13L103.22 34.13L103.22 34.57Q103.22 37.69 104.61 40.10Q106.00 42.52 108.44 43.86Q110.88 45.20 114.00 45.20L114.00 45.20Q116.43 45.20 118.55 44.32Q120.68 43.44 122.14 41.64L122.14 41.64L123.55 43.25Q121.89 45.30 119.38 46.34Q116.87 47.39 113.95 47.39ZM146.47 47.39L146.47 47.39Q143.30 47.39 140.54 46.47Q137.79 45.54 136.28 44.13L136.28 44.13L137.40 42.18Q138.86 43.44 141.30 44.35Q143.74 45.25 146.57 45.25L146.57 45.25Q150.56 45.25 152.32 43.93Q154.07 42.61 154.07 40.47L154.07 40.47Q154.07 38.91 153.17 38.01Q152.27 37.10 150.76 36.62Q149.25 36.13 147.44 35.81Q145.64 35.50 143.84 35.11Q142.03 34.72 140.52 33.98Q139.01 33.25 138.11 31.96Q137.20 30.67 137.20 28.52L137.20 28.52Q137.20 26.57 138.28 25.01Q139.35 23.45 141.50 22.50Q143.64 21.55 146.86 21.55L146.86 21.55Q149.25 21.55 151.66 22.23Q154.07 22.92 155.59 24.04L155.59 24.04L154.46 25.99Q152.86 24.77 150.86 24.23Q148.86 23.70 146.81 23.70L146.81 23.70Q143.10 23.70 141.37 25.06Q139.64 26.43 139.64 28.47L139.64 28.47Q139.64 30.08 140.54 31.03Q141.45 31.99 142.96 32.50Q144.47 33.01 146.27 33.33Q148.08 33.64 149.88 34.03Q151.69 34.42 153.20 35.13Q154.71 35.84 155.61 37.08Q156.51 38.32 156.51 40.42L156.51 40.42Q156.51 42.52 155.37 44.08Q154.22 45.64 151.98 46.51Q149.74 47.39 146.47 47.39ZM180.99 47.39L180.99 47.39Q177.14 47.39 174.19 45.73Q171.24 44.08 169.56 41.15Q167.87 38.23 167.87 34.47L167.87 34.47Q167.87 30.67 169.46 27.77Q171.04 24.87 173.82 23.21Q176.60 21.55 180.06 21.55L180.06 21.55Q183.52 21.55 186.28 23.16Q189.03 24.77 190.62 27.67Q192.20 30.57 192.20 34.37L192.20 34.37Q192.20 34.52 192.18 34.69Q192.15 34.86 192.15 35.06L192.15 35.06L169.68 35.06L169.68 33.16L190.84 33.16L189.86 34.08Q189.91 31.11 188.62 28.74Q187.33 26.38 185.13 25.04Q182.94 23.70 180.06 23.70L180.06 23.70Q177.23 23.70 175.02 25.04Q172.80 26.38 171.53 28.74Q170.26 31.11 170.26 34.13L170.26 34.13L170.26 34.57Q170.26 37.69 171.65 40.10Q173.04 42.52 175.48 43.86Q177.92 45.20 181.04 45.20L181.04 45.20Q183.48 45.20 185.60 44.32Q187.72 43.44 189.18 41.64L189.18 41.64L190.59 43.25Q188.94 45.30 186.43 46.34Q183.91 47.39 180.99 47.39ZM209.51 47.20L207.07 47.20L207.07 21.75L209.41 21.75L209.41 28.82L209.07 28.04Q210.24 25.01 212.93 23.28Q215.61 21.55 219.51 21.55L219.51 21.55Q222.63 21.55 224.94 22.75Q227.26 23.94 228.55 26.35Q229.84 28.77 229.84 32.33L229.84 32.33L229.84 47.20L227.41 47.20L227.41 32.52Q227.41 28.23 225.24 25.99Q223.07 23.75 219.17 23.75L219.17 23.75Q216.19 23.75 214.00 24.96Q211.80 26.18 210.66 28.38Q209.51 30.57 209.51 33.64L209.51 33.64L209.51 47.20ZM254.61 47.39L254.61 47.39Q251.25 47.39 249.47 45.54Q247.69 43.69 247.69 40.47L247.69 40.47L247.69 16.19L250.13 16.19L250.13 40.23Q250.13 42.66 251.35 43.98Q252.57 45.30 254.86 45.30L254.86 45.30Q257.25 45.30 258.81 43.88L258.81 43.88L259.83 45.59Q258.85 46.51 257.47 46.95Q256.08 47.39 254.61 47.39ZM258.22 23.84L243.01 23.84L243.01 21.75L258.22 21.75L258.22 23.84ZM276.36 47.20L273.92 47.20L273.92 21.75L276.36 21.75L276.36 47.20ZM275.14 15.55L275.14 15.55Q274.31 15.55 273.73 14.97Q273.14 14.38 273.14 13.60L273.14 13.60Q273.14 12.77 273.73 12.19Q274.31 11.60 275.14 11.60L275.14 11.60Q276.02 11.60 276.58 12.17Q277.14 12.73 277.14 13.55L277.14 13.55Q277.14 14.38 276.58 14.97Q276.02 15.55 275.14 15.55ZM312.34 47.20L310.00 47.20L310.00 41.40L309.90 40.52L309.90 30.96Q309.90 27.40 307.98 25.55Q306.05 23.70 302.35 23.70L302.35 23.70Q299.71 23.70 297.45 24.60Q295.18 25.50 293.57 26.91L293.57 26.91L292.35 25.16Q294.25 23.45 296.93 22.50Q299.62 21.55 302.54 21.55L302.54 21.55Q307.27 21.55 309.81 23.94Q312.34 26.33 312.34 31.06L312.34 31.06L312.34 47.20ZM300.84 47.39L300.84 47.39Q298.01 47.39 295.94 46.49Q293.86 45.59 292.77 43.93Q291.67 42.27 291.67 40.13L291.67 40.13Q291.67 38.18 292.57 36.59Q293.47 35.01 295.57 34.01Q297.67 33.01 301.18 33.01L301.18 33.01L310.54 33.01L310.54 34.91L301.23 34.91Q297.28 34.91 295.69 36.37Q294.11 37.84 294.11 40.03L294.11 40.03Q294.11 42.47 295.96 43.93Q297.81 45.39 301.18 45.39L301.18 45.39Q304.39 45.39 306.61 43.93Q308.83 42.47 309.90 39.69L309.90 39.69L310.59 41.35Q309.56 44.13 307.10 45.76Q304.64 47.39 300.84 47.39Z" transform="translate(0, 0)"></path></g></svg></svg>